<svg width="28" height="28" viewBox="0 0 28 28" fill="none" xmlns="http://www.w3.org/2000/svg">
<path d="M1 14C1 7.87221 1 4.80695 2.90347 2.90347C4.80695 1 7.87084 1 14 1C20.1278 1 23.1931 1 25.0965 2.90347C27 4.80695 27 7.87084 27 14C27 20.1278 27 23.1931 25.0965 25.0965C23.1931 27 20.1292 27 14 27C7.87221 27 4.80695 27 2.90347 25.0965C1 23.1931 1 20.1292 1 14Z" stroke="#2E0B13" stroke-width="2" stroke-linecap="round" stroke-linejoin="round"/>
<path d="M21.537 6.47363H21.5233M20.1576 13.9999C20.1576 15.6331 19.5088 17.1994 18.354 18.3542C17.1992 19.5091 15.6329 20.1578 13.9997 20.1578C12.3665 20.1578 10.8002 19.5091 9.6454 18.3542C8.49057 17.1994 7.8418 15.6331 7.8418 13.9999C7.8418 12.3668 8.49057 10.8005 9.6454 9.64566C10.8002 8.49083 12.3665 7.84205 13.9997 7.84205C15.6329 7.84205 17.1992 8.49083 18.354 9.64566C19.5088 10.8005 20.1576 12.3668 20.1576 13.9999Z" stroke="#2E0B13" stroke-width="2" stroke-linecap="round" stroke-linejoin="round"/>
</svg>
