<svg width="375" height="222" viewBox="0 0 375 222" fill="none" xmlns="http://www.w3.org/2000/svg">
<path d="M40.7308 118.918L40.8309 118.726L46.0756 122.447L37.5108 138.809L37.3195 138.709C38.4547 136.54 36.9268 135.577 34.5666 134.342L19.64 126.528C17.2798 125.293 15.6182 124.586 14.483 126.755L14.2916 126.654L22.6059 110.771L27.8623 112.994L27.7621 113.186C23.1122 112.986 21.6971 113.749 19.8606 117.257L17.8739 121.053L28.2396 126.479L29.7589 123.577C31.3116 120.61 30.9149 119.428 28.8886 117.554L28.9888 117.363L36.0694 121.069L35.9692 121.261C33.2751 120.663 31.8219 120.877 30.2692 123.844L28.7499 126.746L38.5734 131.888C39.5303 132.389 40.2227 132.386 40.7403 131.397L42.293 128.431C44.0293 125.114 44.0956 123.28 40.7308 118.918Z" fill="#8E0928"/>
<path d="M59.7182 102.909L49.638 116.633L49.464 116.505C50.9131 114.532 49.5476 113.35 47.4006 111.773L33.8218 101.8C31.6748 100.222 30.1388 99.273 28.6896 101.246L28.5155 101.118L33.9712 93.6904L34.1453 93.8183C32.6961 95.7913 34.0616 96.9729 36.2087 98.5499L51.7604 109.973C52.6308 110.612 53.2869 110.692 53.9262 109.821L54.8426 108.574C57.1442 105.44 57.3026 103.279 54.5737 98.2368L54.7015 98.0627L59.7182 102.909Z" fill="#8E0928"/>
<path d="M70.8931 90.6308L64.5767 97.3418L64.4194 97.1938C66.0972 95.4112 64.8852 94.0725 62.9453 92.2467L50.6767 80.6996C48.7368 78.8737 47.3274 77.7449 45.6496 79.5275L45.4923 79.3795L51.8087 72.6685L51.966 72.8165C50.2882 74.5992 51.5002 75.9377 53.4401 77.7635L65.7087 89.3107C67.6486 91.1366 69.058 92.2653 70.7358 90.4827L70.8931 90.6308Z" fill="#8E0928"/>
<path d="M81.2085 81.7355C79.6115 83.0806 76.8493 84.607 74.9986 85.0362L71.0067 80.6322L71.1719 80.4931C75.3056 82.942 78.7361 83.159 81.2968 81.0021C83.472 79.17 84.1703 76.0872 82.0598 73.5816C79.9493 71.076 77.0856 71.6995 73.8218 72.5187L71.8378 73.0131C69.2277 73.6584 66.1552 74.0341 63.5577 70.9502C60.7979 67.6736 61.1249 63.2561 64.5117 60.4035C66.026 59.128 68.5636 57.8378 70.3955 57.3304L73.4104 60.9098L73.2452 61.049C69.5015 59.1189 66.7637 59.1656 64.6711 60.9281C62.4409 62.8067 62.2614 65.4995 64.14 67.7298C66.0881 70.0427 68.5692 69.412 70.9446 68.8233L72.9286 68.3289C76.3214 67.4951 79.6967 66.8643 82.5493 70.2511C85.4715 73.7204 85.0633 78.4886 81.2085 81.7355Z" fill="#8E0928"/>
<path d="M87.3209 43.9189L105.614 58.531C108.05 60.4979 109.342 61.2242 110.705 60.5544L110.819 60.7383L102.97 65.5687L102.857 65.3848C104.498 64.2056 104.364 62.6819 102.781 61.4155L98.4132 57.8898L91.5762 62.0975L92.0008 64.1612C92.9397 68.5714 94.3053 70.3095 96.541 69.2717L96.6543 69.4557L91.5035 72.6256L91.3903 72.4417C92.7488 71.352 92.251 68.8261 91.3051 64.3357L87.0756 44.0698L87.3209 43.9189ZM89.0475 50.296L91.3687 61.2108L97.7151 57.3049L89.0475 50.296Z" fill="#8E0928"/>
<path d="M121.632 40.9806L121.659 41.0472C125.23 39.8847 129.664 40.6247 131.34 44.6843C132.686 47.9454 131.266 51.9589 124.844 54.6102L115.061 58.6491L114.978 58.4494C117.241 57.5153 116.687 55.7965 115.671 53.3341L109.241 37.761C108.225 35.2986 107.405 33.6898 105.142 34.6239L105.06 34.4243L114.377 30.5778C120.134 28.2012 123.605 29.5334 124.965 32.8278C126.476 36.4881 124.248 39.3941 121.632 40.9806ZM113.732 31.4674L112.667 31.907C111.868 32.2367 111.567 32.8283 111.897 33.6269L115.867 43.2436L118.329 42.2271C122.023 40.7022 122.492 37.7822 121.325 34.9537C119.923 31.5596 117.292 29.9975 113.732 31.4674ZM123.659 54.4762C127.353 52.9514 128.709 49.821 127.197 46.1607C125.741 42.6334 122.509 41.1247 118.682 42.7045L116.087 43.776L120.084 53.4593C120.373 54.1581 120.964 55.589 123.659 54.4762Z" fill="#8E0928"/>
<path d="M156.616 38.4374L156.826 38.3873L157.465 44.7857L139.502 49.0737L139.451 48.8636C141.832 48.2952 141.555 46.511 140.936 43.9198L137.024 27.5322C136.406 24.941 135.848 23.2236 133.467 23.792L133.416 23.5819L150.855 19.4193L152.63 24.8432L152.42 24.8934C149.516 21.2562 148.012 20.6901 144.16 21.6095L139.993 22.6042L142.71 33.9845L145.896 33.2238C149.153 32.4465 149.784 31.3705 149.866 28.6121L150.076 28.5619L151.932 36.3355L151.722 36.3857C150.403 33.9617 149.286 33.0067 146.03 33.7841L142.843 34.5447L145.418 45.3297C145.669 46.3802 146.126 46.9002 147.211 46.6411L150.468 45.8638C154.11 44.9945 155.536 43.8396 156.616 38.4374Z" fill="#8E0928"/>
<path d="M181.346 15.9556L182.303 21.5851L182.088 21.6024C179.777 17.5623 178.449 16.7659 175.004 17.0424L173.892 17.1317L175.568 38.0165C175.781 40.672 176.069 42.4547 178.509 42.2589L178.526 42.4742L169.339 43.2115L169.322 42.9961C171.762 42.8003 171.762 40.9946 171.549 38.3391L169.873 17.4542L168.76 17.5435C165.351 17.8171 164.131 18.8179 162.495 23.1748L162.279 23.1921L162.327 17.482L181.346 15.9556Z" fill="#8E0928"/>
<path d="M214.832 17.7934L214.814 18.0086C212.375 17.7983 212.077 19.5793 211.848 22.2334L210.401 39.0191C210.172 41.6733 210.16 43.479 212.599 43.6893L212.581 43.9045L203.399 43.1128L203.417 42.8976C205.856 43.1079 206.155 41.3269 206.383 38.6727L207.119 30.1364L197.077 29.2704L196.341 37.8068C196.112 40.4609 196.101 42.2666 198.54 42.4769L198.521 42.6921L189.339 41.9004L189.358 41.6852C191.797 41.8955 192.095 40.1145 192.324 37.4604L193.771 20.6747C194 18.0205 194.011 16.2148 191.572 16.0045L191.591 15.7893L200.773 16.581L200.754 16.7962C198.315 16.5859 198.017 18.3669 197.788 21.0211L197.132 28.6248L207.175 29.4908L207.831 21.887C208.06 19.2329 208.071 17.4272 205.632 17.2169L205.65 17.0017L214.832 17.7934Z" fill="#8E0928"/>
<path d="M243.865 31.823L249.054 36.1224L247.256 37.6953L243.514 32.0875L242.346 38.8242L240.086 38.0895L243.104 31.9538L236.78 34.2886L236.25 31.9586L242.975 31.5335L237.821 27.2453L239.596 25.627L243.337 31.2349L244.495 24.5323L246.754 25.2671L243.748 31.3685L250.072 29.0338L250.556 31.3868L243.865 31.823Z" fill="#8E0928"/>
<path d="M288.081 45.3957L288.192 45.2104L293.998 48.6891L293.887 48.8744C291.787 47.6161 290.072 49.778 288.074 53.1131L277.897 70.0975L277.711 69.9865L276.33 41.7538L267.948 55.7427C266.024 58.9543 265.198 61.7331 267.421 63.0653L267.31 63.2506L261.196 59.5869L261.307 59.4016C263.407 60.6599 265.468 58.6212 267.392 55.4097L275.238 42.3163C276.57 40.0929 276.075 38.5373 274.556 37.2911L274.667 37.1058L280.225 40.4364L281.245 63.2486L287.518 52.7801C289.516 49.4449 290.428 46.802 288.081 45.3957Z" fill="#8E0928"/>
<path d="M310.534 61.1436L302.268 83.0481C301.148 85.9719 300.855 87.4253 301.912 88.5158L301.772 88.6801L294.758 82.7013L294.899 82.5369C296.526 83.7352 297.934 83.1379 298.652 81.2422L300.66 76.0005L294.551 70.7923L292.718 71.832C288.812 74.0839 287.579 75.9186 289.255 77.7259L289.115 77.8902L284.512 73.9666L284.652 73.8023C286.108 74.7589 288.357 73.5072 292.338 71.2239L310.315 60.9567L310.534 61.1436ZM304.999 64.7509L295.33 70.3217L301.001 75.1561L304.999 64.7509Z" fill="#8E0928"/>
<path d="M311.181 99.1779L304.985 92.3555L305.145 92.2103C306.791 94.0225 308.22 92.9189 310.193 91.1279L322.665 79.8009C324.637 78.0099 325.872 76.6931 324.227 74.8809L324.386 74.7357L330.582 81.558L330.423 81.7033C328.777 79.8911 327.347 80.9946 325.375 82.7857L312.903 94.1127C310.931 95.9037 309.695 97.2205 311.341 99.0327L311.181 99.1779Z" fill="#8E0928"/>
<path d="M325.135 117.725L315.3 103.824L315.477 103.699C316.89 105.697 318.443 104.775 320.618 103.237L334.372 93.5062C336.547 91.9677 337.933 90.8106 336.519 88.8121L336.695 88.6873L342.018 96.2109L341.842 96.3357C340.428 94.3372 338.875 95.2593 336.7 96.7978L320.948 107.942C320.066 108.566 319.783 109.163 320.407 110.045L321.301 111.308C323.546 114.482 325.547 115.316 331.193 114.32L331.318 114.497L325.135 117.725Z" fill="#8E0928"/>
<path d="M331.951 130.737C330.999 128.879 330.132 125.844 330.13 123.945L335.319 121.044L335.417 121.237C332.102 124.714 331.119 128.008 332.646 130.988C333.942 133.52 336.789 134.893 339.705 133.399C342.621 131.906 342.657 128.975 342.592 125.611L342.556 123.566C342.514 120.878 342.838 117.8 346.427 115.962C350.24 114.009 354.471 115.32 356.489 119.261C357.392 121.024 358.079 123.786 358.162 125.685L353.996 127.819L353.898 127.627C356.62 124.412 357.19 121.734 355.942 119.299C354.613 116.704 352.03 115.924 349.434 117.253C346.743 118.631 346.8 121.191 346.839 123.638L346.875 125.682C346.925 129.175 346.781 132.606 342.84 134.625C338.803 136.693 334.248 135.223 331.951 130.737Z" fill="#8E0928"/>
<path d="M124.388 148.896C127.41 147.378 130.637 146.237 133.984 145.503C130.637 144.769 127.41 143.628 124.388 142.11C121.268 140.446 118.532 138.231 116.339 135.591C114.145 132.951 112.536 129.938 111.603 126.723C110.67 123.509 110.432 120.156 110.902 116.857C111.373 113.558 112.542 110.376 114.343 107.494C116.145 104.612 118.543 102.086 121.402 100.06C124.261 98.0337 127.524 96.5476 131.004 95.6861C134.485 94.8247 138.115 94.6048 141.687 95.039C145.26 95.4732 148.705 96.5531 151.826 98.2169C154.758 99.8795 157.441 101.891 159.805 104.2C158.822 101.154 158.279 98.0015 158.19 94.8242C158.19 88.1038 161.08 81.6586 166.226 76.9066C171.371 72.1545 178.35 69.4849 185.627 69.4849C192.904 69.4849 199.882 72.1545 205.028 76.9066C210.173 81.6586 213.064 88.1038 213.064 94.8242C212.975 98.0015 212.431 101.154 211.448 104.2C213.813 101.891 216.496 99.8795 219.428 98.2169C225.731 94.8567 233.22 93.9463 240.25 95.6861C247.279 97.4259 253.272 101.673 256.91 107.494C260.549 113.315 261.535 120.232 259.651 126.723C257.767 133.215 253.168 138.75 246.865 142.11C243.843 143.628 240.617 144.769 237.27 145.503C240.617 146.237 243.843 147.378 246.865 148.896C253.168 152.256 257.767 157.791 259.651 164.282C261.535 170.774 260.549 177.691 256.91 183.512C253.272 189.333 247.279 193.58 240.25 195.32C233.22 197.06 225.731 196.149 219.428 192.789C216.496 191.126 213.813 189.115 211.448 186.806C212.431 189.852 212.975 193.004 213.064 196.182C213.064 202.902 210.173 209.347 205.028 214.099C199.882 218.851 192.904 221.521 185.627 221.521C178.35 221.521 171.371 218.851 166.226 214.099C161.08 209.347 158.19 202.902 158.19 196.182C158.279 193.004 158.822 189.852 159.805 186.806C157.441 189.115 154.758 191.126 151.826 192.789C147.658 195.022 142.925 196.197 138.107 196.196C135.695 196.192 133.294 195.896 130.966 195.316C125.714 194.025 120.995 191.322 117.409 187.551C113.822 183.78 111.529 179.11 110.82 174.133C110.112 169.157 111.019 164.098 113.428 159.599C115.837 155.099 119.638 151.362 124.35 148.86L124.388 148.896ZM148.777 103.095C143.875 100.481 138.05 99.7731 132.583 101.126C127.116 102.479 122.455 105.782 119.625 110.309C116.795 114.836 116.028 120.216 117.493 125.265C118.958 130.314 122.535 134.619 127.437 137.232C132.734 140.048 142.543 141.92 155.972 142.68L158.38 142.561C158.816 139.134 160.005 135.826 161.873 132.839C163.742 129.852 166.252 127.249 169.248 125.189C168.875 124.485 168.486 123.852 168.151 123.19C160.728 112.836 154.074 105.924 148.777 103.095ZM185.627 165.211C189.848 165.211 193.973 164.055 197.483 161.89C200.992 159.724 203.727 156.646 205.343 153.045C206.958 149.444 207.38 145.481 206.557 141.658C205.734 137.835 203.701 134.323 200.717 131.567C197.732 128.811 193.93 126.934 189.79 126.173C185.651 125.413 181.36 125.803 177.46 127.295C173.561 128.786 170.228 131.313 167.883 134.554C165.538 137.795 164.287 141.605 164.287 145.503C164.287 150.73 166.535 155.743 170.537 159.439C174.539 163.135 179.967 165.211 185.627 165.211ZM185.627 75.1158C179.967 75.1158 174.539 77.1922 170.537 80.8883C166.535 84.5843 164.287 89.5972 164.287 94.8242C164.287 100.455 167.442 109.254 173.433 120.375C173.875 120.987 174.309 121.607 174.751 122.24C178.182 120.87 181.881 120.164 185.619 120.164C189.357 120.164 193.056 120.87 196.487 122.24C196.929 121.607 197.364 120.987 197.806 120.375C203.812 109.254 206.967 100.455 206.967 94.8242C206.967 89.5972 204.719 84.5843 200.717 80.8883C196.715 77.1922 191.287 75.1158 185.627 75.1158ZM243.817 137.232C248.718 134.619 252.295 130.314 253.76 125.265C255.225 120.216 254.459 114.836 251.629 110.309C248.799 105.782 244.138 102.479 238.671 101.126C233.204 99.7731 227.378 100.481 222.477 103.095C217.18 105.91 210.526 112.836 203.103 123.19C202.745 123.852 202.341 124.514 202.005 125.189C205.002 127.249 207.512 129.852 209.38 132.839C211.249 135.826 212.438 139.134 212.874 142.561L215.282 142.68C228.711 141.92 238.52 140.055 243.817 137.232ZM222.477 187.911C224.904 189.205 227.583 190.045 230.362 190.383C233.14 190.721 235.964 190.55 238.671 189.88C241.378 189.21 243.915 188.054 246.139 186.478C248.362 184.903 250.228 182.938 251.629 180.697C253.03 178.455 253.939 175.981 254.305 173.414C254.671 170.848 254.486 168.241 253.76 165.741C253.035 163.241 251.783 160.897 250.077 158.844C248.371 156.79 246.244 155.068 243.817 153.773C238.482 150.958 228.711 149.086 215.282 148.325L212.874 148.445C212.438 151.871 211.249 155.18 209.38 158.167C207.512 161.154 205.002 163.757 202.005 165.817C202.379 166.521 202.768 167.154 203.103 167.816C210.526 178.17 217.18 185.082 222.477 187.911ZM185.627 215.89C191.287 215.89 196.715 213.814 200.717 210.118C204.719 206.422 206.967 201.409 206.967 196.182C206.967 190.551 203.812 181.752 197.821 170.631C197.379 170.019 196.945 169.399 196.503 168.766C193.071 170.136 189.373 170.842 185.634 170.842C181.896 170.842 178.198 170.136 174.766 168.766C174.324 169.399 173.89 170.019 173.448 170.631C167.45 181.752 164.302 190.53 164.302 196.182C164.302 201.406 166.548 206.417 170.547 210.113C174.546 213.808 179.97 215.886 185.627 215.89ZM119.625 180.697C121.026 182.938 122.892 184.903 125.115 186.479C127.338 188.054 129.876 189.21 132.583 189.88C135.29 190.55 138.114 190.721 140.892 190.383C143.671 190.045 146.35 189.205 148.777 187.911C154.074 185.096 160.728 178.17 168.151 167.816C168.509 167.154 168.913 166.492 169.248 165.817C166.252 163.757 163.742 161.154 161.873 158.167C160.005 155.18 158.816 151.871 158.38 148.445L155.972 148.325C142.543 149.086 132.734 150.951 127.437 153.773C125.01 155.067 122.882 156.79 121.176 158.844C119.47 160.897 118.218 163.241 117.493 165.741C116.768 168.241 116.583 170.848 116.948 173.414C117.314 175.981 118.224 178.455 119.625 180.697Z" fill="#8E0928"/>
</svg>
