<svg width="24" height="27" viewBox="0 0 24 27" fill="none" xmlns="http://www.w3.org/2000/svg">
<path d="M23.1621 6.48659L23.1477 11.0527C22.3448 10.9722 21.3019 10.7877 20.1489 10.3639C18.6434 9.81027 17.5238 9.05619 16.7908 8.47276L16.7616 17.7015L16.743 17.6727C16.7543 17.8557 16.7605 18.0421 16.7599 18.2301C16.7455 22.8132 12.9809 26.5323 8.36698 26.5179C3.7531 26.5035 0.0120662 22.761 0.0265473 18.178C0.0410283 13.5949 3.80565 9.87412 8.41952 9.88851C8.87136 9.88992 9.31457 9.92688 9.74744 9.9977L9.73322 14.4977C9.31765 14.349 8.87117 14.268 8.40569 14.2665C6.22152 14.2597 4.43757 16.0196 4.4307 18.1917C4.42384 20.3638 6.19663 22.1348 8.38081 22.1416C10.565 22.1484 12.3489 20.3868 12.3558 18.2164C12.356 18.1351 12.3546 18.0538 12.3497 17.9724L12.4064 0.0384223L16.9981 0.0527396C17.014 0.439089 17.0281 0.82883 17.0439 1.21518C17.0722 1.97601 17.3427 2.70709 17.8165 3.30665C18.3718 4.01152 19.1928 4.83073 20.3468 5.48664C21.4275 6.09826 22.4429 6.36404 23.1621 6.48997L23.1621 6.48659Z" fill="#2E0B13"/>
</svg>
